<?xml version="1.0" encoding="UTF-8" standalone="no"?>
<svg width="85px" height="37px" viewBox="0 0 55 37" version="1.1" xmlns="http://www.w3.org/2000/svg" xmlns:xlink="http://www.w3.org/1999/xlink" xmlns:sketch="http://www.bohemiancoding.com/sketch/ns">
    <!-- Generator: sketchtool 3.4 (381) - http://www.bohemiancoding.com/sketch -->
    <title>Header_logo</title>
    <desc>Created with sketchtool.</desc>
    <defs></defs>
    <g id="Welcome" stroke="none" stroke-width="1" fill="none" fill-rule="evenodd" sketch:type="MSPage">
        <g id="1.2-Homepage---Desktop" sketch:type="MSArtboardGroup" transform="translate(0.000000, -52.000000)">
            <g id="Header" sketch:type="MSLayerGroup" transform="translate(0.000000, 38.000000)">
                <g id="Header_logo" transform="translate(10.000000, 13.000000)" sketch:type="MSShapeGroup">
                    <g id="Group" transform="translate(0.000000, 0.000000)">
                        <path d="M34.7674642,12.7370118 C34.425566,11.4436022 33.9263606,10.1943412 33.2736846,9.00359315 C32.2349877,7.11005658 30.8603609,5.45965484 29.1871061,4.09801532 C27.4548077,2.68800232 25.4778092,1.65061298 23.3100383,1.0154206 C21.7578547,0.560836633 20.1589904,0.330164843 18.5565025,0.330164843 L18.5552236,0.330164843 C16.7692106,0.330376081 15.0019551,0.614068584 13.300564,1.17384903 C11.6236856,1.72539119 10.0516787,2.53168627 8.62781343,3.56970933 C8.5404205,3.63350317 8.45409334,3.69750826 8.36925826,3.76278077 L8.38375269,3.74588174 C3.73721997,7.14216474 0.722803452,12.6049882 0.722803452,18.7657416 C0.722803452,20.8667138 1.07450669,22.8863594 1.72078805,24.771024 C2.04414188,25.791303 2.467891,26.7813751 2.99096964,27.734058 C4.02966655,29.6273833 5.40429334,31.2779963 7.07733501,32.6400583 C8.80963335,34.0496488 10.786845,35.0866157 12.9541896,35.7222306 C14.5061601,36.1766033 16.1056638,36.4072751 17.7092175,36.4072751 C19.4948042,36.4072751 21.2629123,36.1237938 22.9640902,35.5638021 C24.6409686,35.01226 26.2129756,34.2065986 27.6368408,33.1677306 C28.2833353,32.6964588 28.8914622,32.182517 29.4588768,31.6286512 L29.4644188,31.6250602 C33.1803234,28.2175816 35.5071068,23.3439007 35.5071068,17.9311406 C35.5071068,16.1284364 35.2483384,14.3859349 34.7674642,12.7370118" id="Fill-1" fill="#FCD01F"></path>
                        <path d="M20.7628542,11.0587267 C22.0076705,8.15209316 21.3633076,4.63202474 18.3022104,4.2355312 C16.2612659,3.97169505 14.4952893,5.53591173 13.8771442,7.16983691 C13.1389937,9.12040771 13.3900885,10.9442358 13.6256231,12.2173666 C13.8779968,13.5830196 14.5507092,14.2395471 15.3317035,14.5745704 C16.4729273,15.0642198 17.6576343,14.6761758 18.5010826,14.0101427 C19.5082328,13.2158882 20.2932771,12.1542065 20.7628542,11.0587267" id="Fill-2" fill="#FFFFFF"></path>
                        <path d="M20.0984548,31.4943039 C20.0189486,31.4943039 19.9402949,31.4761375 19.8646255,31.4393821 C19.7367334,31.3774894 19.5161195,31.1700538 19.5934942,30.8259472 C19.6005283,30.7957402 19.6393222,30.6649839 19.6855765,30.5485918 C20.0856656,29.5526051 21.9965866,24.9850079 22.0669272,24.8179188 C22.1483518,24.6248473 22.2029191,24.3369301 22.0014891,24.063377 C21.9482007,23.9909224 21.8831889,23.9321982 21.8036827,23.883191 C21.6992375,23.819186 21.5730506,23.7809519 21.4577346,23.7790508 L21.4428138,23.7782058 L21.4274668,23.7779946 C21.3711943,23.7779946 21.1746667,23.788134 21.0011598,23.9229038 C20.8470498,24.0422532 20.7884326,24.1525194 20.7200104,24.2798958 C20.7095659,24.2993297 20.6997608,24.3189748 20.68889,24.3381975 C20.6754613,24.3637573 20.6613932,24.3897395 20.6464724,24.4165667 L17.9287655,29.8056681 C17.8754772,29.9248063 17.7520613,30.1208351 17.7068728,30.179348 C17.6164957,30.29743 17.5299554,30.3472821 17.4728303,30.3749543 C17.3229834,30.4471976 17.1569368,30.4463527 17.0064504,30.3736869 C16.8416828,30.2932052 16.6839492,30.0806999 16.7267931,29.8018659 C16.7321219,29.7659554 16.7451243,29.7201168 16.7692106,29.6482959 C16.8050204,29.5430994 16.8679007,29.384671 16.8704585,29.3781226 C17.062723,28.8912193 19.0855495,23.6871623 19.2100311,23.3327051 C19.3541229,22.9243822 19.1156041,22.6248469 18.9698071,22.5234527 C18.8828405,22.4630386 18.7905451,22.4074831 18.6119225,22.3872042 C18.5901808,22.3846694 18.5669471,22.3836132 18.5430739,22.3836132 C18.4107056,22.3836132 18.2759926,22.4231147 18.1638738,22.4947243 C18.1161275,22.5261988 18.066889,22.5604193 17.996122,22.6440695 C17.8699352,22.8343949 16.7805077,25.0291567 16.057278,26.4852195 C15.3971417,27.8149621 15.0211389,28.5720388 14.965719,28.6603362 L14.9525035,28.6871634 C14.9294829,28.7321571 14.8987888,28.7936273 14.855945,28.8534077 C14.7497945,29.0006405 14.6289365,29.0840795 14.4869763,29.1062594 C14.4528717,29.1119629 14.421325,29.1144977 14.3899915,29.1144977 C14.3147483,29.1144977 14.2593284,29.0984436 14.2135004,29.082812 C14.0557668,29.0295801 13.8803415,28.8591111 13.8701101,28.6119627 C13.8649944,28.494092 13.9125277,28.2927823 14.0344515,27.9167788 C14.0410592,27.8962887 14.0461749,27.8812908 14.0483064,27.87432 L14.0506511,27.8652368 C14.6884063,25.9195244 16.0061212,22.3143271 16.5398575,21.313482 C16.5888828,21.220326 16.9512437,20.2934141 17.897432,19.8460122 C18.4324472,19.5931605 18.9169451,19.4725436 19.6947421,19.5665445 C20.7553939,19.6947659 21.8853204,20.3088345 22.2163478,20.4769799 C23.1196923,20.9359998 23.9503514,21.575417 24.2351244,22.0828104 C24.6885019,22.8924853 24.7200486,24.0462667 24.0202657,25.4550123 C23.1601914,27.1886418 20.8474762,30.8618576 20.8274397,30.8926984 C20.73621,31.0329604 20.5605716,31.283066 20.4124299,31.3895299 C20.3171503,31.4583935 20.2088683,31.4943039 20.0984548,31.4943039" id="Fill-3" fill="#FFFFFF"></path>
                        <path d="M25.702473,21.981205 C25.5193741,20.5086655 24.648429,18.6229448 22.1072132,17.2951033 C22.0311174,17.2545456 20.3891962,16.2807389 17.8686563,15.9315627 C16.8879371,15.7955254 15.1914486,15.7361676 13.6298862,15.972754 C11.7841902,16.2522218 10.5894649,16.742505 10.1915074,16.9605025 C9.75432957,17.1996238 9.5970223,17.7579256 9.8600537,18.1941318 C10.0333475,18.4816266 10.4487836,18.7653191 11.0017037,18.5477441 C11.0017037,18.5477441 11.4891857,18.3206633 12.1405828,18.0935826 C12.452,17.9850063 12.8126557,17.8766413 13.1534881,17.7927798 C13.9321378,17.6005533 14.5472987,17.515002 15.0416017,17.4691634 C15.5469886,17.4224798 15.9257623,17.4174101 16.1638547,17.4174101 C19.0486739,17.4174101 21.2021635,18.1755429 22.5859559,19.2811621 C23.4232228,19.9503638 23.9880795,20.8498148 24.2063487,21.635831 C24.5030583,22.7044835 24.5868277,23.8039768 23.8190488,25.3567867 C23.0022447,27.0099345 20.6950714,30.6865302 20.6392252,30.7718703 C20.5757055,30.8696735 20.4024117,31.1221027 20.2809142,31.2095552 C20.1314936,31.3168641 19.998699,31.2566613 19.9624629,31.2397623 C19.9394423,31.2285666 19.7559172,31.1246376 19.812616,30.8741094 C19.8158133,30.8601677 19.8503442,30.7395509 19.8944669,30.6303409 C20.2979665,29.624426 22.2246608,25.0086666 22.2736861,24.9041038 C22.4248119,24.5813323 22.4414379,24.2213829 22.2225293,23.9045261 C22.1443019,23.7915138 22.0547775,23.713567 21.9503323,23.6474495 C21.8062405,23.5561948 21.6355046,23.5078213 21.4786236,23.5078213 C21.4786236,23.5078213 21.1467436,23.4786705 20.8540839,23.7239177 C20.6377331,23.9049485 20.5752792,24.080276 20.4902309,24.2346909 C20.4774417,24.2600395 20.4627341,24.285388 20.4478134,24.3124265 L17.7254171,29.711456 C17.6834259,29.8071468 17.5672572,29.9949373 17.5286765,30.044367 C17.464091,30.1278059 17.4086711,30.1586467 17.3749928,30.1753345 C17.2505112,30.2346923 17.1484107,30.1945571 17.1042879,30.1736446 C17.0281921,30.1368892 16.9199101,30.0188072 16.9486858,29.834819 C16.9520963,29.8109491 16.9657381,29.7680678 16.9819378,29.7196943 C17.0164686,29.6187226 17.0789226,29.4594492 17.0789226,29.4594492 C17.2722528,28.9712784 19.2884716,23.7708125 19.4219057,23.4060046 C19.6252541,22.8534063 19.3244945,22.4579689 19.1156041,22.3075675 C19.0222429,22.2401826 18.8792169,22.1529414 18.6490112,22.1284378 C18.454402,22.1077365 18.2241963,22.1514627 18.0276688,22.2868662 C17.9549834,22.3369296 17.8650327,22.4112853 17.7689004,22.5523923 C17.6397294,22.7418727 14.9058229,28.3339737 14.7755861,28.5430992 C14.7551234,28.5768973 14.7205925,28.6573789 14.6730593,28.7241301 C14.5993082,28.8274254 14.5289675,28.8743202 14.4515928,28.8867833 C14.3729392,28.8996688 14.3326532,28.8880507 14.2863989,28.8724191 C14.2068926,28.8455919 14.1003159,28.7503236 14.0939213,28.6020346 C14.0873135,28.4512107 14.2537864,27.9729681 14.2642309,27.9336778 C14.8891969,26.0272558 16.203075,22.4214248 16.7380902,21.4171998 C17.0802015,20.7750365 17.6702104,20.4013567 18.4107056,20.4057927 C19.3549755,20.4112849 20.1101783,20.8962871 20.620894,21.1761773 C20.687611,21.212299 20.7732987,21.2560252 20.8566418,21.2919357 C21.0648927,21.3804444 21.3104455,21.3622779 21.5114492,21.2218047 C21.5873319,21.168784 21.6538358,21.0965406 21.7105346,20.9945127 C21.7857778,20.8569968 21.8145535,20.6668827 21.7516732,20.4795147 C21.6617224,20.2114538 21.4099882,20.076684 21.3641602,20.0500681 C20.5844448,19.5876683 19.3082949,19.2653192 18.7346989,19.2313099 C18.5810152,19.2222267 18.3559251,19.199413 18.0726441,19.2365909 C17.3928977,19.3267895 16.7555688,19.6533633 16.2896153,20.3455899 C15.5840773,21.3945973 13.5740399,27.3367195 13.1639326,28.6920219 C13.0128068,29.1905434 13.1276966,29.5093014 13.2926773,29.7429305 C13.4591502,29.9788832 13.704703,30.12168 13.8662734,30.1694198 C14.3409662,30.3109492 14.7080165,30.1628714 14.9608165,29.9467751 C15.0936111,29.8331291 15.268397,29.6062596 15.3928786,29.3369312 C15.3928786,29.3369312 18.1148485,23.4763468 18.2979474,23.2283535 C18.3678617,23.1341414 18.4893592,23.1480831 18.5473369,23.2023713 C18.5857046,23.2387042 18.6225801,23.3010194 18.5914597,23.3886831 C17.8754772,25.4026253 16.223964,29.2699688 16.1097137,29.5992887 C16.0244524,29.8447471 15.933649,30.0606323 15.9082837,30.2632094 C15.8729002,30.5528166 15.9370594,30.8069358 16.1101401,31.0593651 C16.1713151,31.1485075 16.2616922,31.2330026 16.3411984,31.2940504 C16.5451863,31.4529013 16.8276147,31.5306369 17.046097,31.5215536 C17.4947851,31.5029647 17.8145153,31.270603 18.0257504,30.9277639 C18.1014199,30.8052459 18.1581187,30.6806155 18.2092755,30.5866147 C18.2092755,30.5866147 21.0060623,24.8339728 21.1797824,24.5988651 C21.2013109,24.5701367 21.2405312,24.5452106 21.2838013,24.5369724 C21.3170533,24.5310577 21.3507315,24.5350712 21.3908044,24.5534489 C21.4191538,24.5663344 21.445798,24.5883032 21.4669002,24.6309732 C21.4816078,24.6590679 21.4899207,24.7074413 21.4735079,24.7547586 C21.0776819,25.9121311 19.0198982,30.5642234 18.9435893,30.7763063 C18.9011717,30.8948108 18.8304048,31.0589426 18.7971528,31.1787145 C18.6846078,31.5809115 18.8090894,32.030637 19.1688925,32.3327072 C19.3624359,32.4951491 19.7060393,32.6263279 20.0276879,32.5752083 C20.3465655,32.5249337 20.6579827,32.3337634 20.9050276,32.0397202 C21.1693379,31.7253982 21.4302378,31.3432688 21.5105966,31.2211733 C21.5105966,31.2211733 23.5511149,28.2482111 24.5906644,26.4790936 C25.5935515,24.7729251 25.8706511,23.324678 25.702473,21.981205" id="Fill-4" fill="#343433"></path>
                        <path d="M20.9335902,5.6115349 C20.3342026,4.63350341 19.0923704,3.85466926 17.5427446,3.98500304 C16.0615411,4.10963341 14.8000988,5.03633409 14.1064973,5.94740316 C13.2197789,7.11280267 12.6157019,8.60245237 12.560282,10.7285619 C12.5374746,11.6113251 12.6542827,12.6058331 12.8621073,13.7169445 C13.0712109,14.834393 13.403304,15.8629103 13.6202942,17.5502787 C13.6443806,17.7391254 13.7658781,19.2980611 13.3289134,20.8001738 C13.1551934,21.3983996 12.8729781,22.2397602 12.5419508,22.9949357 C12.0781288,24.0534488 11.5411952,25.3398876 10.8593172,26.2615186 C10.6497873,26.5449999 10.425763,26.629495 10.1556976,26.5692922 C10.0866358,26.5540831 9.96918828,26.4955702 9.8971424,26.4182571 C9.73471945,26.2441971 9.64071877,26.0044421 9.76178994,25.5437322 C10.0661731,24.3876272 11.159011,22.3050327 11.6486246,21.4600811 C11.8300182,21.1607569 12.0224958,20.8519271 12.2264836,20.5338029 C12.2435359,20.5063419 12.2514226,20.4930339 12.2697538,20.465573 C12.4317504,20.2256068 12.3703622,19.9041027 12.1265147,19.7482091 C11.8924721,19.5988639 11.5706104,19.657588 11.4128768,19.9043139 C11.382609,19.9518424 11.3487176,20.0044407 11.3184498,20.051758 C10.1356611,21.906638 9.0485784,23.9438163 8.58688796,25.1571668 C8.1665493,26.2602512 8.27568388,26.8779108 8.53956789,27.3510837 C8.81005965,27.8358747 9.18158617,28.1189335 9.66523142,28.2856002 C9.90012655,28.3673493 10.2475667,28.4032597 10.4532598,28.3785449 C11.3679014,28.2670112 11.853465,27.7712359 12.357573,26.8536184 C13.333816,25.0749953 14.1248285,23.1199885 14.5799112,21.3515048 C15.0347807,19.5857671 15.0343544,18.3929067 14.9836239,17.557672 C14.9390748,16.8217192 14.7760124,16.0682336 14.5639247,15.27926 C14.4402957,14.8193951 14.2725439,14.0804849 14.0453223,13.0289426 C13.3289134,9.70955022 14.0736717,7.66434484 14.9228752,6.56506279 C15.3067646,6.06865372 15.8117252,5.68884797 16.1772834,5.50359233 C18.0769072,4.54203739 19.9520184,5.59738196 20.1246727,7.4974669 C20.3970828,10.481836 18.1244404,12.2767245 17.4719776,12.7756684 C17.4414967,12.7995383 17.3436592,12.8787525 17.323836,12.8979751 C17.1430818,13.0460529 17.0298973,13.2705988 17.0339472,13.520282 C17.0416208,13.9573332 17.4046211,14.3056645 17.8454225,14.2982712 C18.0174374,14.2955251 18.1747447,14.2389133 18.3032762,14.1455462 C18.5906071,13.9664164 18.8994665,13.7055376 19.2183441,13.3920606 C19.832013,12.7893988 20.3290869,12.119141 20.7487861,11.3462215 C21.8919282,9.23785598 21.8198823,7.05703587 20.9335902,5.6115349" id="Fill-5" fill="#343433"></path>
                        <path d="M27.3220131,8.85889518 C27.3220131,8.30207207 26.8665041,7.85086791 26.3048447,7.85086791 C25.9132818,7.85086791 25.5735151,8.0709778 25.4036318,8.39290437 C25.3465067,8.49049628 25.3258308,8.5669644 25.3258308,8.5669644 L25.3258308,8.56738688 L25.3194362,8.58132858 L22.4678689,16.0238736 C22.3608659,16.2961593 22.4932342,16.5931598 22.7615944,16.6987787 C22.8317219,16.7262396 22.9044072,16.7374353 22.9747479,16.7344779 C23.2904282,16.7205362 23.4219439,16.4505742 23.4219439,16.4505742 C23.4219439,16.4505742 27.1830371,9.38023033 27.2263072,9.28390584 C27.2874823,9.15462825 27.3220131,9.01077523 27.3220131,8.85889518" id="Fill-6" fill="#343433"></path>
                        <path d="M34.9750757,16.4567001 C34.7286703,14.3005948 34.0713049,12.2365893 33.0208846,10.3215064 C31.9706774,8.40684607 30.5800641,6.73743292 28.8882649,5.36016179 C27.1363564,3.93409471 25.1363373,2.88508728 22.9444801,2.24271282 C21.3746047,1.78263666 19.7571961,1.54943002 18.136377,1.54943002 C16.3292618,1.54964126 14.5411173,1.83671357 12.8209687,2.40261991 C11.1244801,2.96071045 9.53456833,3.77587752 8.09450342,4.82615237 C6.69408505,5.84748763 5.46887885,7.06759776 4.45043152,8.45395212 C7.43010402,3.55851372 12.8162793,0.558513016 18.5618314,0.558301778 C20.1110309,0.55809054 21.684743,0.775876818 23.2450265,1.23320688 C30.59669,3.38762225 35.2931007,10.1700488 35.0558609,17.4245922 C35.037956,17.1022431 35.0117381,16.7796828 34.9750757,16.4567001 L34.9750757,16.4567001 Z M33.8869272,22.9503645 L33.8798931,22.9738119 L33.8722196,22.9972593 C33.2947868,24.9131871 32.3918687,26.6453379 31.2412662,28.1523091 C28.1588537,32.1911778 23.2983149,34.6121754 18.1489531,34.6121754 C16.6067877,34.6121754 15.0403227,34.3954453 13.4862207,33.9400164 C6.74353666,31.9645195 2.24493246,26.0779529 1.76320559,19.5160586 C1.65236578,18.0071863 1.75403999,16.4632485 2.08911726,14.922268 C2.15647376,14.64618 2.22574864,14.3641774 2.29566298,14.0798512 C2.3244387,13.9759221 2.35342758,13.8717819 2.38433483,13.7676416 L2.3913689,13.7429267 L2.39712404,13.7228591 C2.94130488,11.8988198 3.78027698,10.2408135 4.84604438,8.78411696 C7.91630711,4.58766478 12.8746834,2.0614707 18.1350981,2.06104822 C19.6772635,2.06083698 21.2437285,2.27777831 22.7978305,2.73299599 C29.6526333,4.74186845 34.1878999,10.7923557 34.5417347,17.4850062 C34.636588,19.2826408 34.4313212,21.1261139 33.8869272,22.9503645 L33.8869272,22.9503645 Z M17.703036,36.1793494 C16.1538365,36.1793494 14.5803375,35.9615631 13.0194146,35.5044443 C7.20778494,33.8005994 3.0557683,29.2057525 1.68902818,23.7708125 C1.59076442,23.2832754 1.48759814,22.7716572 1.39061331,22.2929921 C1.22776405,21.2391262 1.16786792,20.1611792 1.21945106,19.0739377 C1.23650334,19.4545884 1.26570537,19.8352391 1.30940183,20.2163123 C1.55538095,22.3726288 2.21231997,24.4368456 3.26316663,26.3515059 C4.31358698,28.2665888 5.70398714,29.9360019 7.39599946,31.3130618 C9.14769477,32.7397626 11.1477139,33.7877138 13.3399974,34.4309333 C14.9092333,34.8905869 16.5272814,35.1235823 18.1489531,35.1235823 C19.9547894,35.1235823 21.7429339,34.8369325 23.4635088,34.2708149 C25.1591448,33.7127244 26.7494829,32.8977686 28.1895478,31.8479162 C29.6387783,30.7908817 30.8997943,29.5217644 31.9393438,28.0752072 C28.9871681,33.0937973 23.5297996,36.1793494 17.703036,36.1793494 L17.703036,36.1793494 Z M35.0287904,12.6485032 C34.682416,11.3346034 34.1753238,10.0656973 33.511777,8.85636033 C32.4568805,6.93303922 31.060512,5.25665522 29.3610393,3.87346943 C27.6016705,2.44127645 25.5935515,1.38783302 23.3916761,0.742712467 C21.8154061,0.280735173 20.1909634,0.0464723387 18.5635366,0.0464723387 L18.5618314,0.0464723387 C16.7485347,0.0466835766 14.9529298,0.334812076 13.2246814,0.903253274 C11.5215851,1.46366743 9.9246392,2.28263678 8.47839284,3.33713639 C8.3901473,3.40135272 8.30232806,3.46683647 8.2155746,3.53274269 L8.23070849,3.51584366 C3.51085098,6.96535862 0.449327537,12.5143671 0.449327537,18.7718675 C0.449327537,20.9062153 0.806359616,22.9573353 1.46308549,24.8711507 C1.791555,25.9079063 2.22191188,26.9133988 2.75309035,27.8812908 C3.80820008,29.8044007 5.20435538,31.4809959 6.90382808,32.8639705 C8.66319691,34.2963747 10.671529,35.3498181 12.8734045,35.9945162 C14.4494613,36.4567048 16.0743303,36.6909676 17.703036,36.6909676 C19.5165458,36.6909676 21.312577,36.4026278 23.040186,35.8341867 C24.7432823,35.274195 26.3404413,34.4552256 27.7866877,33.400726 C28.4432004,32.9222722 29.0609192,32.3994583 29.6374994,31.837143 L29.6426151,31.8333408 C33.4177764,28.3726302 35.7807958,23.4218475 35.7807958,17.9239586 C35.7807958,16.0931597 35.5179776,14.3231973 35.0287904,12.6485032 L35.0287904,12.6485032 Z" id="Fill-7" fill="#FFFFFF"></path>
                    </g>
                   
                </g>
            </g>
        </g>
    </g>
</svg>